<svg xmlns="http://www.w3.org/2000/svg" width="719.357" height="405.5" viewBox="0 0 719.357 405.5">
    <g id="undraw_Add_content_re_vgqa" transform="translate(0 0)">
        <path id="Path_15" data-name="Path 15" d="M912.7,281.195a291.262,291.262,0,0,1-2.746,37.422c-.06.436-.126.871-.186,1.307l-117.25-.655c-.344-.433-.683-.87-1.011-1.313-1.095-1.466-2.121-2.974-3.062-4.533-4.527-7.514-6.6-16.311-4.522-22.38l.037-.094a10.652,10.652,0,0,1,2.079-3.612c4.735-5.33,14.309-4.441,23-.139-7.793-8.53-14-19.293-14.469-28.9-.462-9.371,4.438-16.065,9.752-21.754.174-.188.349-.371.523-.554.085-.094.174-.183.259-.277,4.147-4.335,8.981-8.609,15.978-8.092,7.674.568,16.182,7,22.148,14.486s9.93,15.988,13.948,24.287,8.377,16.8,14.833,23.887c-8.745-11.061-15.8-23.646-18.4-35.886s-.312-24,7.481-29.76a18.228,18.228,0,0,1,7.984-3.222c.336-.056.678-.1,1.025-.141,7.215-.821,15.829,1.674,23.158,7.639,8.071,6.567,13.667,16.3,16.452,25.545S912.787,272.594,912.7,281.195Z" transform="translate(-261.299 -221.028)" fill="#f2f2f2"/>
        <path id="Path_16" data-name="Path 16" d="M836.173,328.55l-2.242-.013q-1.068-.668-2.146-1.32c-.445-.281-.895-.551-1.345-.827q-11.155-6.813-22.45-13.07t-22.682-11.948a.94.94,0,0,1-.54-1.074.272.272,0,0,1,.037-.079c.106-.2.343-.282.689-.112.932.467,1.869.935,2.8,1.413q11.429,5.783,22.76,12.142t22.517,13.275c.157.1.314.2.471.291C834.754,327.67,835.461,328.11,836.173,328.55Z" transform="translate(-261.486 -230.067)" fill="#fff"/>
        <path id="Path_17" data-name="Path 17" d="M867.634,321.6l-1.386-.008c-.313-.438-.62-.875-.933-1.313q-11.02-15.453-22.036-30.907-18.039-25.3-36.067-50.6a.9.9,0,0,1-.156-.305c-.1-.373.172-.592.523-.554a1.053,1.053,0,0,1,.733.466q10.114,14.188,20.222,28.365l35.885,50.341c.761,1.065,1.521,2.135,2.282,3.2C867.014,320.721,867.327,321.158,867.634,321.6Z" transform="translate(-264.04 -222.952)" fill="#fff"/>
        <path id="Path_18" data-name="Path 18" d="M906.9,311.61c-.071,2.336-.225,4.636-.427,6.914q-.059.653-.118,1.307l-1.455-.008c.044-.436.089-.871.128-1.307.307-3.291.525-6.619.555-10.038a140.023,140.023,0,0,0-2.757-28.226,175.746,175.746,0,0,0-8.538-29.324,201.382,201.382,0,0,0-13.969-29.013.775.775,0,0,1-.129-.515c.06-.415.612-.537,1.025-.141a1.212,1.212,0,0,1,.208.264q1.007,1.731,1.976,3.472a201.232,201.232,0,0,1,13.37,29.115,174.9,174.9,0,0,1,7.96,29.368A138.146,138.146,0,0,1,906.9,311.61Z" transform="translate(-272.421 -221.017)" fill="#fff"/>
        <path id="Path_19" data-name="Path 19" d="M395.7,415.195a291.23,291.23,0,0,1-2.746,37.422c-.06.436-.126.871-.186,1.307l-117.25-.655c-.344-.432-.683-.87-1.011-1.313-1.095-1.466-2.121-2.974-3.062-4.533-4.527-7.514-6.6-16.311-4.522-22.38l.037-.094a10.651,10.651,0,0,1,2.079-3.612c4.735-5.33,14.309-4.441,23-.139-7.792-8.53-14-19.293-14.469-28.9-.462-9.371,4.438-16.065,9.752-21.754.174-.188.349-.371.523-.554.085-.094.174-.183.259-.277,4.147-4.336,8.981-8.609,15.978-8.092,7.674.568,16.183,7,22.148,14.486s9.93,15.988,13.948,24.287,8.377,16.8,14.833,23.887c-8.745-11.061-15.8-23.646-18.4-35.886s-.312-24,7.481-29.76a18.229,18.229,0,0,1,7.985-3.222c.336-.056.678-.1,1.025-.141,7.215-.821,15.829,1.674,23.158,7.639,8.071,6.567,13.667,16.3,16.452,25.545S395.787,406.594,395.7,415.195Z" transform="translate(-202.07 -236.38)" fill="#f2f2f2"/>
        <path id="Path_20" data-name="Path 20" d="M319.173,462.55l-2.242-.013q-1.068-.668-2.146-1.32c-.445-.281-.895-.551-1.345-.827q-11.155-6.813-22.45-13.07t-22.682-11.948a.94.94,0,0,1-.54-1.074.271.271,0,0,1,.037-.079c.106-.2.343-.282.689-.112.932.467,1.869.935,2.8,1.412q11.429,5.783,22.76,12.142t22.517,13.275c.157.1.314.2.471.291C317.754,461.67,318.461,462.11,319.173,462.55Z" transform="translate(-202.257 -245.419)" fill="#fff"/>
        <path id="Path_21" data-name="Path 21" d="M350.634,455.6l-1.386-.008c-.313-.438-.62-.875-.933-1.313q-11.02-15.453-22.035-30.907-18.039-25.3-36.067-50.6a.893.893,0,0,1-.156-.305c-.1-.373.172-.592.523-.554a1.053,1.053,0,0,1,.732.466q10.114,14.188,20.222,28.365l35.885,50.341c.761,1.065,1.521,2.135,2.282,3.2C350.015,454.721,350.327,455.158,350.634,455.6Z" transform="translate(-204.811 -238.303)" fill="#fff"/>
        <path id="Path_22" data-name="Path 22" d="M389.9,445.61c-.071,2.336-.225,4.636-.427,6.914q-.059.653-.118,1.307l-1.455-.008c.044-.436.089-.871.128-1.307.307-3.291.526-6.619.555-10.038a140.027,140.027,0,0,0-2.757-28.226,175.739,175.739,0,0,0-8.538-29.324,201.382,201.382,0,0,0-13.969-29.013.775.775,0,0,1-.128-.515c.06-.415.612-.537,1.025-.141a1.2,1.2,0,0,1,.209.264q1.006,1.731,1.976,3.472a201.248,201.248,0,0,1,13.37,29.115,174.9,174.9,0,0,1,7.96,29.368A138.14,138.14,0,0,1,389.9,445.61Z" transform="translate(-213.192 -236.368)" fill="#fff"/>
        <path id="Path_23" data-name="Path 23" d="M476.361,513.3a6.2,6.2,0,0,1-5.447-3.22l-6.277-11.462A6.2,6.2,0,0,1,467.1,490.2l95.535-52.314a6.2,6.2,0,0,1,8.413,2.459l6.277,11.463a6.2,6.2,0,0,1-2.459,8.413l-95.535,52.314A6.162,6.162,0,0,1,476.361,513.3Z" transform="translate(-224.727 -245.775)" fill="#ff0"/>
        <path id="Path_24" data-name="Path 24" d="M626.529,445.138a6.225,6.225,0,0,1-1.9-.3,6.155,6.155,0,0,1-3.623-3.061l-5.989-11.615a6.2,6.2,0,0,1,2.669-8.349L714.5,371.9a6.2,6.2,0,0,1,8.349,2.669l5.989,11.615a6.2,6.2,0,0,1-2.669,8.349l-96.811,49.914a6.159,6.159,0,0,1-2.828.69Z" transform="translate(-241.963 -238.224)" fill="#ff0"/>
        <path id="Path_25" data-name="Path 25" d="M624.574,451.011a6.216,6.216,0,0,1-5.552-3.422l-5.863-11.68a6.186,6.186,0,0,1-.48-4.259c.039-.158.084-.316.136-.473h0c.118-.357.247-.913.4-1.557.475-2.055,1.066-4.611,2.272-5.216l42.539-25.784a6.195,6.195,0,0,1,8.35,2.742l10.73,22.117a6.2,6.2,0,0,1-2.761,8.315l-47.035,18.569A6.071,6.071,0,0,1,624.574,451.011Z" transform="translate(-241.753 -241.286)" fill="#2f2e41"/>
        <circle id="Ellipse_5" data-name="Ellipse 5" cx="47.388" cy="47.388" r="47.388" transform="translate(316.002 55.855)" fill="#ff0"/>
        <path id="Path_26" data-name="Path 26" d="M593.267,661.767H580.2a6.205,6.205,0,0,1-6.2-6.2V546.648a6.2,6.2,0,0,1,6.2-6.2h13.068a6.2,6.2,0,0,1,6.2,6.2V655.569A6.2,6.2,0,0,1,593.267,661.767Z" transform="translate(-237.343 -257.612)" fill="#ff0"/>
        <path id="Path_27" data-name="Path 27" d="M650.353,607.229a6.194,6.194,0,0,1-5.05-2.591l-63.352-88.6a6.2,6.2,0,0,1,1.437-8.647l10.631-7.6a6.2,6.2,0,0,1,8.647,1.437l63.352,88.6a6.205,6.205,0,0,1-1.437,8.647l-10.631,7.6a6.165,6.165,0,0,1-3.6,1.154Z" transform="translate(-238.122 -252.822)" fill="#ff0"/>
        <path id="Path_28" data-name="Path 28" d="M637.85,667.843a8.532,8.532,0,0,1-3.743-.936l-11.7-5.825c-3.059-1.523-4.745-4.376-3.758-6.359L648.8,594.16c.987-1.983,4.279-2.357,7.339-.834l11.7,5.824a8.252,8.252,0,0,1,3.354,2.915,3.5,3.5,0,0,1,.4,3.444l-30.152,60.563A3.8,3.8,0,0,1,637.85,667.843Z" transform="translate(-242.426 -263.562)" fill="#ff0"/>
        <path id="Path_29" data-name="Path 29" d="M552.223,480.039a6.216,6.216,0,0,1-5.607-3.559l-10.764-22.088a6.2,6.2,0,0,1,2.966-8.253l46.615-17.561c1.187-.562,3.563.553,5.473,1.448.6.281,1.116.524,1.47.651.155.056.307.118.456.185h0a6.187,6.187,0,0,1,3.053,3.008l5.565,11.824a6.206,6.206,0,0,1-2.969,8.248L554.9,479.43a6.25,6.25,0,0,1-2.675.609Z" transform="translate(-232.905 -244.778)" fill="#2f2e41"/>
        <path id="Path_30" data-name="Path 30" d="M597.062,353.553l-.049-1.771c3.294-.092,6.2-.3,8.381-1.893a5.443,5.443,0,0,0,2.109-4.01,3.112,3.112,0,0,0-1.021-2.563c-1.449-1.224-3.78-.827-5.479-.048l-1.465.672,2.81-20.534,1.754.24-2.39,17.467a6.252,6.252,0,0,1,5.913.851,4.845,4.845,0,0,1,1.647,3.978,7.2,7.2,0,0,1-2.834,5.378C603.634,353.369,599.99,353.472,597.062,353.553Z" transform="translate(-239.979 -232.747)" fill="#2f2e41"/>
        <rect id="Rectangle_12" data-name="Rectangle 12" width="9.537" height="1.771" transform="translate(372.799 92.407)" fill="#2f2e41"/>
        <rect id="Rectangle_13" data-name="Rectangle 13" width="9.537" height="1.771" transform="translate(342.694 92.407)" fill="#2f2e41"/>
        <path id="Path_31" data-name="Path 31" d="M670.151,544.476H522.742a5.743,5.743,0,0,1-4.984-8.633l73.7-127.66a5.7,5.7,0,0,1,4.984-2.878h0a5.7,5.7,0,0,1,4.984,2.878l73.7,127.66a5.756,5.756,0,0,1-4.984,8.633Z" transform="translate(-230.81 -242.13)" fill="#2f2e41"/>
        <path id="Path_32" data-name="Path 32" d="M750.513,678.754H413.161a.885.885,0,1,1,0-1.771H750.513a.885.885,0,1,1,0,1.771Z" transform="translate(-218.815 -273.254)" fill="#3f3d56"/>
        <path id="Path_33" data-name="Path 33" d="M585.948,278.673c-5.255-21.064-25.624-37.237-47.45-36.835a50.268,50.268,0,0,0-29.714,10.774,48.03,48.03,0,0,0-10.9,11.922,60.693,60.693,0,0,0-6.967,16.778c-3.258,11.819-4.794,25.192-13.063,34.844a36.316,36.316,0,0,1-27.478,12.362,33.928,33.928,0,0,1-26.825-13.851c-6.224-8.3-9.288-19.774-5.692-29.789,1.764-4.914,5.559-9.557,10.985-10.376a12.8,12.8,0,0,1,12.678,6.068,12.606,12.606,0,0,1-1.4,13.773,12.407,12.407,0,0,1-18.993-.524c-1.061-1.34-2.943.539-1.892,1.865a15.354,15.354,0,0,0,14.025,5.358,14.335,14.335,0,0,0,11.422-9.545,14.555,14.555,0,0,0-2.655-14.712,15.574,15.574,0,0,0-14.467-4.74c-5.6,1.186-9.672,5.795-11.784,10.9a30.422,30.422,0,0,0-1.584,16.69,39.1,39.1,0,0,0,17.9,26.369,36.863,36.863,0,0,0,31.6,2.872,38.728,38.728,0,0,0,13.874-8.543,41.521,41.521,0,0,0,9.557-15.252c4.672-12.233,5.357-25.923,11.968-37.422a47.1,47.1,0,0,1,25.616-20.715,44.038,44.038,0,0,1,32.683,1.569,48.089,48.089,0,0,1,23.281,23.116,43.05,43.05,0,0,1,2.706,7.729,1.329,1.329,0,0,0,2.566-.688Z" transform="translate(-218.976 -223.401)" fill="#2f2e41"/>
        <path id="Path_34" data-name="Path 34" d="M947.52,455.944H739.443a15.069,15.069,0,0,1-15.052-15.052V347.035a15.069,15.069,0,0,1,15.052-15.052H947.52a15.069,15.069,0,0,1,15.052,15.052v93.856A15.069,15.069,0,0,1,947.52,455.944ZM739.443,333.754a13.3,13.3,0,0,0-13.282,13.282v93.856a13.3,13.3,0,0,0,13.282,13.282H947.52A13.3,13.3,0,0,0,960.8,440.892V347.035a13.3,13.3,0,0,0-13.281-13.282Z" transform="translate(-254.572 -233.73)" fill="#3f3d56"/>
        <circle id="a50d232f-7710-43e4-8fa9-6ef0443fc454" cx="19.256" cy="19.256" r="19.256" transform="translate(507.567 123.379)" fill="#ccc"/>
        <path id="e49b4965-a9e9-4371-9134-194e44e65c31" d="M835.584,367.609a3.209,3.209,0,1,0,0,6.419h98.175a3.21,3.21,0,0,0,.105-6.419H835.584Z" transform="translate(-266.943 -237.811)" fill="#ccc"/>
        <path id="abc4586a-ac92-4255-aae6-84f53baad571" d="M835.584,389.357a3.21,3.21,0,1,0,0,6.419h98.175a3.21,3.21,0,1,0,.105-6.419H835.584Z" transform="translate(-266.943 -240.302)" fill="#ccc"/>
        <path id="e49b4965-a9e9-4371-9134-194e44e65c31-2" data-name="e49b4965-a9e9-4371-9134-194e44e65c31" d="M769.976,414.609a3.209,3.209,0,1,0,0,6.419H926.59a3.21,3.21,0,1,0,.105-6.419H769.976Z" transform="translate(-259.427 -243.195)" fill="#ccc"/>
        <path id="abc4586a-ac92-4255-aae6-84f53baad571-2" data-name="abc4586a-ac92-4255-aae6-84f53baad571" d="M769.976,436.357a3.209,3.209,0,1,0,0,6.419H926.59a3.21,3.21,0,1,0,.105-6.419H769.976Z" transform="translate(-259.427 -245.687)" fill="#ccc"/>
        <path id="Path_35" data-name="Path 35" d="M1024.665,445.6c77.181,1.318,77.169,116.123,0,117.43C947.485,561.717,947.5,446.911,1024.665,445.6Z" transform="translate(-363.19 -246.746)" fill="#ff0"/>
        <path id="Path_36" data-name="Path 36" d="M1025.713,554.925a6.475,6.475,0,0,1-6.467-6.467V514.17a2.884,2.884,0,0,0-2.881-2.882H982.079a6.468,6.468,0,1,1,0-12.936h34.288a2.885,2.885,0,0,0,2.882-2.881v-34.29a6.467,6.467,0,1,1,12.933,0v34.29a2.884,2.884,0,0,0,2.881,2.881h34.289a6.468,6.468,0,0,1,0,12.936h-34.289a2.885,2.885,0,0,0-2.881,2.882v34.288A6.475,6.475,0,0,1,1025.713,554.925Z" transform="translate(-364.239 -244.789)" fill="#212121"/>
        <path id="Path_37" data-name="Path 37" d="M430.52,589.944H222.442a15.069,15.069,0,0,1-15.052-15.052V481.035a15.07,15.07,0,0,1,15.052-15.052H430.52a15.069,15.069,0,0,1,15.052,15.052v93.856a15.069,15.069,0,0,1-15.052,15.052ZM222.442,467.754a13.3,13.3,0,0,0-13.282,13.282v93.856a13.3,13.3,0,0,0,13.282,13.281H430.52A13.3,13.3,0,0,0,443.8,574.892V481.035a13.3,13.3,0,0,0-13.282-13.282Z" transform="translate(-195.343 -249.081)" fill="#3f3d56"/>
        <path id="e49b4965-a9e9-4371-9134-194e44e65c31-3" data-name="e49b4965-a9e9-4371-9134-194e44e65c31" d="M252.976,510.485a3.209,3.209,0,1,0,0,6.419H409.59a3.21,3.21,0,1,0,.105-6.418H252.976Z" transform="translate(-200.198 -254.179)" fill="#ccc"/>
        <path id="abc4586a-ac92-4255-aae6-84f53baad571-3" data-name="abc4586a-ac92-4255-aae6-84f53baad571" d="M252.976,532.233a3.209,3.209,0,1,0,0,6.419H409.59a3.21,3.21,0,0,0,.105-6.419H252.976Z" transform="translate(-200.198 -256.671)" fill="#ccc"/>
        <path id="abc4586a-ac92-4255-aae6-84f53baad571-4" data-name="abc4586a-ac92-4255-aae6-84f53baad571" d="M252.976,554.233a3.21,3.21,0,1,0,0,6.419H409.59a3.21,3.21,0,0,0,.105-6.419H252.976Z" transform="translate(-200.198 -259.191)" fill="#ccc"/>
        <path id="Path_38" data-name="Path 38" d="M272.178,579.605c104.532,1.785,104.516,157.275,0,159.045C167.645,736.865,167.661,581.374,272.178,579.605Z" transform="translate(-193.784 -385.726)" fill="#ff0"/>
        <path id="Path_39" data-name="Path 39" d="M268.579,720.657a8.525,8.525,0,0,1-8.515-8.516V667a3.8,3.8,0,0,0-3.794-3.8H211.126a8.516,8.516,0,0,1,0-17.032h45.145a3.8,3.8,0,0,0,3.794-3.793V597.229a8.514,8.514,0,0,1,17.028,0v45.147a3.8,3.8,0,0,0,3.794,3.793h45.145a8.516,8.516,0,1,1,0,17.032H280.888a3.8,3.8,0,0,0-3.794,3.8v45.146A8.525,8.525,0,0,1,268.579,720.657Z" transform="translate(-190.563 -381.801)" fill="#212121"/>
    </g>
</svg>
